<svg width="21" height="20" viewBox="0 0 21 20" fill="none" xmlns="http://www.w3.org/2000/svg">
<path fill-rule="evenodd" clip-rule="evenodd" d="M9.52676 1.04001C10.1482 0.764434 10.8517 0.764434 11.4732 1.04001L18.6663 4.2295C20.3126 4.9595 19.8086 7.5 18.0174 7.5H2.98255C1.19139 7.5 0.687408 4.95949 2.33373 4.22949L9.52676 1.04001ZM10.8244 2.60637C10.6172 2.51451 10.3827 2.51451 10.1756 2.60637L3.3423 5.63626C3.25998 5.67276 3.28603 5.79577 3.37608 5.79577H17.6239C17.714 5.79577 17.74 5.67276 17.6577 5.63626L10.8244 2.60637Z" fill="#000"/>
<path d="M2.16667 18.3333C2.16667 17.8731 2.53976 17.5 3 17.5H18C18.4602 17.5 18.8333 17.8731 18.8333 18.3333C18.8333 18.7936 18.4602 19.1667 18 19.1667H3C2.53976 19.1667 2.16667 18.7936 2.16667 18.3333Z" fill="#000"/>
<path d="M9.66667 15.8333C9.66667 16.2936 10.0398 16.6667 10.5 16.6667C10.9602 16.6667 11.3333 16.2936 11.3333 15.8333V9.16666C11.3333 8.70642 10.9602 8.33333 10.5 8.33333C10.0398 8.33333 9.66667 8.70643 9.66667 9.16666V15.8333Z" fill="#000"/>
<path d="M5.5 16.6667C5.03976 16.6667 4.66667 16.2936 4.66667 15.8333L4.66667 9.16666C4.66667 8.70643 5.03976 8.33333 5.5 8.33333C5.96024 8.33333 6.33333 8.70642 6.33333 9.16666L6.33333 15.8333C6.33333 16.2936 5.96024 16.6667 5.5 16.6667Z" fill="#000"/>
<path d="M14.6667 15.8333C14.6667 16.2936 15.0398 16.6667 15.5 16.6667C15.9602 16.6667 16.3333 16.2936 16.3333 15.8333V9.16666C16.3333 8.70642 15.9602 8.33333 15.5 8.33333C15.0398 8.33333 14.6667 8.70643 14.6667 9.16666V15.8333Z" fill="#000"/>
</svg>
